<?xml version="1.0" standalone="no"?>
<!DOCTYPE svg PUBLIC "-//W3C//DTD SVG 20010904//EN"
 "http://www.w3.org/TR/2001/REC-SVG-20010904/DTD/svg10.dtd">
<svg version="1.0" xmlns="http://www.w3.org/2000/svg"
 width="100.000000pt" height="100.000000pt" viewBox="0 0 100.000000 100.000000"
 preserveAspectRatio="xMidYMid meet">

<g transform="translate(0.000000,100.000000) scale(0.100000,-0.100000)"
fill="#000000" stroke="none">
<path d="M80 825 l0 -95 95 0 95 0 0 95 0 95 -95 0 -95 0 0 -95z m180 0 l0
-85 -85 0 -85 0 0 85 0 85 85 0 85 0 0 -85z"/>
<path d="M300 825 l0 -95 95 0 95 0 0 95 0 95 -95 0 -95 0 0 -95z m180 0 l0
-85 -85 0 -85 0 0 85 0 85 85 0 85 0 0 -85z"/>
<path d="M530 825 l0 -95 95 0 95 0 0 95 0 95 -95 0 -95 0 0 -95z m180 0 l0
-85 -85 0 -85 0 0 85 0 85 85 0 85 0 0 -85z"/>
<path d="M750 825 l0 -95 95 0 95 0 0 95 0 95 -95 0 -95 0 0 -95z m180 0 l0
-85 -85 0 -85 0 0 85 0 85 85 0 85 0 0 -85z"/>
<path d="M80 605 l0 -95 100 0 100 0 0 95 0 95 -100 0 -100 0 0 -95z"/>
<path d="M300 605 l0 -95 100 0 100 0 0 95 0 95 -100 0 -100 0 0 -95z"/>
<path d="M520 605 l0 -95 100 0 100 0 0 95 0 95 -100 0 -100 0 0 -95z"/>
<path d="M750 605 l0 -95 95 0 95 0 0 95 0 95 -95 0 -95 0 0 -95z m180 0 l0
-85 -85 0 -85 0 0 85 0 85 85 0 85 0 0 -85z"/>
<path d="M80 380 l0 -100 100 0 100 0 0 100 0 100 -100 0 -100 0 0 -100z"/>
<path d="M300 380 l0 -100 95 0 95 0 0 100 0 100 -95 0 -95 0 0 -100z m180 -5
l0 -85 -85 0 -85 0 0 85 0 85 85 0 85 0 0 -85z"/>
<path d="M530 380 l0 -100 95 0 95 0 0 100 0 100 -95 0 -95 0 0 -100z m180 -5
l0 -85 -85 0 -85 0 0 85 0 85 85 0 85 0 0 -85z"/>
<path d="M750 380 l0 -100 95 0 95 0 0 100 0 100 -95 0 -95 0 0 -100z m180 -5
l0 -85 -85 0 -85 0 0 85 0 85 85 0 85 0 0 -85z"/>
<path d="M80 155 l0 -95 95 0 95 0 0 95 0 95 -95 0 -95 0 0 -95z m180 0 l0
-85 -85 0 -85 0 0 85 0 85 85 0 85 0 0 -85z"/>
<path d="M300 155 l0 -95 95 0 95 0 0 95 0 95 -95 0 -95 0 0 -95z m180 0 l0
-85 -85 0 -85 0 0 85 0 85 85 0 85 0 0 -85z"/>
<path d="M530 155 l0 -95 95 0 95 0 0 95 0 95 -95 0 -95 0 0 -95z m180 0 l0
-85 -85 0 -85 0 0 85 0 85 85 0 85 0 0 -85z"/>
<path d="M750 155 l0 -95 95 0 95 0 0 95 0 95 -95 0 -95 0 0 -95z m180 0 l0
-85 -85 0 -85 0 0 85 0 85 85 0 85 0 0 -85z"/>
</g>
</svg>
